<?xml version="1.0" encoding="utf-8"?>
<!-- Generator: Adobe Illustrator 17.1.0, SVG Export Plug-In . SVG Version: 6.00 Build 0)  -->
<!DOCTYPE svg PUBLIC "-//W3C//DTD SVG 1.1//EN" "http://www.w3.org/Graphics/SVG/1.1/DTD/svg11.dtd">
<svg version="1.1" id="Layer_1" xmlns="http://www.w3.org/2000/svg" xmlns:xlink="http://www.w3.org/1999/xlink" x="0px" y="0px"
	 viewBox="0 0 600 300" enable-background="new 0 0 600 300" xml:space="preserve">
<g id="Layer_3">
	<g id="Laag_2">
		<path fill="#094a69" d="M478.3,213.1v-9.4c-5-0.5-5-8.3,0-8.8v-8.6c-5-0.5-5-8.3,0-8.8v-9c-13.7-1.6-24.6-13.4-24.6-27.5
			s11-26,24.6-27.5v-7.4c-5-0.5-5-8.3,0-8.8v-8.8c-5.5-0.1-5.5-8.7,0-9v-7.4h-0.1c-5.8,0-5.8-9,0-9h0.1v-2.5H121.7V67h0.1
			c5.8,0,5.8,9,0,9h-0.1v6.6c5.5,0.1,5.5,8.7,0,9v7.8c5,0.5,5,8.3,0,8.8v9.6c12.7,2.4,22.6,13.8,22.6,27.2s-9.9,24.8-22.6,27.2v9.2
			c5,0.5,5,8.3,0,8.8v7.8c5.5,0.1,5.5,8.7,0,9v8.2c5,0.5,5,8.3,0,8.8v15.1h356.5V222C473.3,221.5,473.3,213.8,478.3,213.1z"/>
		<g>
			<path fill="#CCCCCC" d="M188.6,103.3L188.6,103.3c0-0.1,0-0.1,0-0.2s0-0.4,0.1-0.5s0.3-0.1,0.4-0.1c0.1,0,0.3,0,0.4,0.1
				c0.1,0.1,0.1,0.3,0.3,0.5l0.8,2.7v0.1v0.1c0,0.1,0,0.3-0.1,0.3s-0.3,0.1-0.4,0.1h-10.2v1.5c0,0.5,0,0.9-0.1,1.1
				c0,0.1-0.3,0.3-0.5,0.3s-0.4,0-0.5-0.1s-0.1-0.3-0.1-0.5v-5.5c0-0.3,0-0.4,0.1-0.5s0.3-0.1,0.5-0.1s0.4,0,0.5,0.3
				c0.1,0.1,0.1,0.5,0.1,1.1v1.6h9.1L188.6,103.3z"/>
			<path fill="#CCCCCC" d="M184.3,119c-0.4-0.4-0.8-0.7-0.9-1.1c-0.3-0.4-0.3-0.8-0.3-1.3c0-0.9,0.4-1.7,1.1-2.5
				c0.8-0.7,1.6-1.1,2.7-1.1c1.1,0,2.1,0.4,2.8,1.1s1.1,1.5,1.1,2.5c0,1.2-0.5,2.1-1.5,2.9c-0.9,0.8-2.3,1.1-3.9,1.1
				c-2.1,0-3.8-0.5-5.1-1.6c-1.2-1.1-1.9-2.5-1.9-4.3c0-0.5,0-0.9,0.1-1.1c0-0.1,0.3-0.3,0.5-0.3c0.4,0,0.5,0.4,0.5,1.1
				c0,0.5,0,0.9,0.1,1.2c0.1,0.9,0.7,1.7,1.5,2.4C181.9,118.5,182.9,118.9,184.3,119z M186.7,118.7c0.8,0,1.3-0.1,1.9-0.5
				c0.5-0.4,0.7-0.9,0.7-1.6s-0.3-1.1-0.7-1.5c-0.5-0.4-1.1-0.5-1.7-0.5c-0.8,0-1.3,0.1-1.9,0.5c-0.5,0.4-0.7,0.9-0.7,1.5
				s0.3,1.1,0.7,1.5C185.5,118.6,186,118.7,186.7,118.7z"/>
			<path fill="#CCCCCC" d="M178.3,128.2c0-1.2,0.5-2.1,1.6-2.8c1.1-0.7,2.7-1.1,4.6-1.1c1.9,0,3.3,0.4,4.6,1.1
				c1.1,0.7,1.6,1.6,1.6,2.8c0,1.2-0.5,2.1-1.6,2.8s-2.7,1.1-4.6,1.1c-1.9,0-3.3-0.4-4.6-1.1C178.9,130.4,178.3,129.4,178.3,128.2z
				 M189.2,128.2c0-0.7-0.4-1.2-1.2-1.6s-2-0.5-3.6-0.5s-2.7,0.1-3.6,0.5c-0.9,0.4-1.2,0.9-1.2,1.6s0.4,1.2,1.2,1.6
				c0.8,0.4,2,0.5,3.6,0.5s2.7-0.1,3.6-0.5C188.8,129.6,189.2,129,189.2,128.2z"/>
			<path fill="#CCCCCC" d="M184.3,141.9c-0.4-0.4-0.8-0.7-0.9-1.1c-0.3-0.4-0.3-0.8-0.3-1.3c0-0.9,0.4-1.7,1.1-2.5
				c0.8-0.7,1.6-1.1,2.7-1.1c1.1,0,2.1,0.4,2.8,1.1c0.7,0.7,1.1,1.5,1.1,2.5c0,1.2-0.5,2.1-1.5,2.9c-0.9,0.8-2.3,1.1-3.9,1.1
				c-2.1,0-3.8-0.5-5.1-1.6c-1.2-1.1-1.9-2.5-1.9-4.3c0-0.5,0-0.9,0.1-1.1c0-0.1,0.3-0.3,0.5-0.3c0.4,0,0.5,0.4,0.5,1.1
				c0,0.5,0,0.9,0.1,1.2c0.1,0.9,0.7,1.7,1.5,2.4C181.9,141.4,182.9,141.6,184.3,141.9z M186.7,141.6c0.8,0,1.3-0.1,1.9-0.5
				c0.5-0.4,0.7-0.9,0.7-1.6c0-0.7-0.3-1.1-0.7-1.5c-0.5-0.4-1.1-0.5-1.7-0.5c-0.8,0-1.3,0.1-1.9,0.5c-0.5,0.4-0.7,0.9-0.7,1.5
				s0.3,1.1,0.7,1.5C185.5,141.5,186,141.6,186.7,141.6z"/>
			<path fill="#CCCCCC" d="M178.7,147.9c0-0.4,0-0.5,0.1-0.7c0.1-0.1,0.4-0.3,0.5-0.3c0.4,0,1.1,0.5,2.3,1.7l0.3,0.3
				c0.1,0.1,0.4,0.4,0.7,0.8c2,2.1,3.5,3.2,4.4,3.2c0.7,0,1.2-0.1,1.6-0.5c0.4-0.4,0.5-0.9,0.5-1.5c0-0.4,0-0.8-0.3-1.1
				s-0.4-0.7-0.7-0.8c0,0-0.1-0.1-0.3-0.1c-0.4-0.3-0.5-0.5-0.5-0.8s0-0.4,0.1-0.5s0.4-0.1,0.8-0.1c0.3,0,0.4,0,0.5,0
				s0.3,0.1,0.4,0.3c0.4,0.4,0.7,0.9,0.9,1.5s0.4,1.2,0.4,1.7c0,1.1-0.4,1.9-1.1,2.5c-0.7,0.7-1.5,1.1-2.4,1.1
				c-1.2,0-2.8-1.1-4.8-3.2c-0.5-0.5-0.9-0.9-1.2-1.2l-1.1-1.1v4.2c0.3,0,0.5,0.1,0.5,0.3c0.1,0.1,0.3,0.3,0.3,0.5
				c0,0.3,0,0.4-0.1,0.5s-0.3,0.1-0.5,0.1c0,0,0,0-0.1,0c0,0,0,0-0.1,0h-0.7c-0.1,0-0.4,0-0.5-0.1s-0.1-0.3-0.1-0.4L178.7,147.9
				L178.7,147.9L178.7,147.9L178.7,147.9z"/>
			<path fill="#CCCCCC" d="M178.3,162.5c0-1.2,0.5-2.1,1.6-2.8s2.7-1.1,4.6-1.1c1.9,0,3.3,0.4,4.6,1.1c1.1,0.7,1.6,1.6,1.6,2.8
				s-0.5,2.1-1.6,2.8s-2.7,1.1-4.6,1.1c-1.9,0-3.3-0.4-4.6-1.1C178.9,164.7,178.3,163.7,178.3,162.5z M189.2,162.5
				c0-0.7-0.4-1.2-1.2-1.6c-0.8-0.4-2-0.5-3.6-0.5s-2.7,0.1-3.6,0.5c-0.9,0.4-1.2,0.9-1.2,1.6s0.4,1.2,1.2,1.6
				c0.8,0.4,2,0.5,3.6,0.5s2.7-0.1,3.6-0.5C188.8,163.9,189.2,163.3,189.2,162.5z"/>
			<path fill="#CCCCCC" d="M188.6,171.8v-0.1c0,0,0,0,0-0.1s0-0.4,0.1-0.5s0.3-0.1,0.4-0.1c0.1,0,0.3,0,0.4,0.1s0.1,0.3,0.3,0.5
				l0.8,2.7v0.1v0.1c0,0.1,0,0.3-0.1,0.3s-0.3,0.1-0.4,0.1h-10.2v1.5c0,0.5,0,0.9-0.1,1.1c0,0.1-0.3,0.3-0.5,0.3s-0.4,0-0.5-0.1
				c0-0.1-0.1-0.3-0.1-0.5v-5.6c0-0.3,0-0.4,0.1-0.5s0.3-0.1,0.5-0.1s0.4,0,0.5,0.3c0.1,0.1,0.1,0.5,0.1,1.1v1.6h9.1L188.6,171.8z"
				/>
			<path fill="#CCCCCC" d="M188.6,183.1V183c0,0,0,0,0-0.1s0-0.4,0.1-0.5s0.3-0.1,0.4-0.1c0.1,0,0.3,0,0.4,0.1s0.1,0.3,0.3,0.5
				l0.8,2.7v0.1v0.1c0,0.1,0,0.3-0.1,0.3s-0.3,0.1-0.4,0.1h-10.2v1.5c0,0.5,0,0.9-0.1,1.1c0,0.1-0.3,0.3-0.5,0.3s-0.4,0-0.5-0.1
				s-0.1-0.3-0.1-0.5V183c0-0.3,0-0.4,0.1-0.5s0.3-0.1,0.5-0.1s0.4,0,0.5,0.3c0.1,0.1,0.1,0.5,0.1,1.1v1.6h9.1L188.6,183.1z"/>
		</g>
		<g>
			<path fill="#CCCCCC" d="M411.6,187.6v0.1c0,0,0,0,0,0.1s0,0.4-0.1,0.5s-0.3,0.1-0.4,0.1s-0.3,0-0.4-0.1s-0.1-0.3-0.3-0.5
				l-0.8-2.7V185v-0.1c0-0.1,0-0.3,0.1-0.3s0.3-0.1,0.4-0.1h10V183c0-0.5,0-0.9,0.1-1.1c0.1-0.1,0.3-0.3,0.5-0.3s0.4,0,0.5,0.1
				s0.1,0.3,0.1,0.5v5.5c0,0.3,0,0.4-0.1,0.5s-0.3,0.1-0.5,0.1c-0.3,0-0.4,0-0.5-0.3c-0.1-0.1-0.1-0.5-0.1-1.1v-1.6H411L411.6,187.6
				z"/>
			<path fill="#CCCCCC" d="M416,171.9c0.4,0.4,0.8,0.7,0.9,1.1c0.3,0.4,0.3,0.8,0.3,1.3c0,0.9-0.4,1.7-1.1,2.5
				c-0.7,0.7-1.6,1.1-2.7,1.1s-2.1-0.4-2.8-1.1c-0.7-0.7-1.1-1.5-1.1-2.5c0-1.2,0.5-2.1,1.5-2.9c0.9-0.8,2.3-1.1,3.9-1.1
				c2.1,0,3.8,0.5,5.1,1.6c1.2,1.1,1.9,2.5,1.9,4.3c0,0.5,0,0.9-0.1,1.1c0,0.1-0.3,0.3-0.5,0.3c-0.4,0-0.5-0.4-0.5-1.1
				c0-0.5,0-0.9-0.1-1.2c-0.1-0.9-0.7-1.7-1.5-2.4C418.4,172.4,417.3,172,416,171.9z M413.6,172c-0.8,0-1.3,0.1-1.9,0.5
				s-0.7,0.9-0.7,1.6s0.3,1.1,0.7,1.5c0.5,0.4,1.1,0.5,1.7,0.5c0.8,0,1.3-0.1,1.9-0.5s0.7-0.9,0.7-1.5s-0.3-1.1-0.7-1.5
				C414.8,172.3,414.1,172,413.6,172z"/>
			<path fill="#CCCCCC" d="M421.9,162.5c0,1.2-0.5,2.1-1.6,2.8s-2.7,1.1-4.6,1.1s-3.3-0.4-4.6-1.1c-1.2-0.7-1.6-1.6-1.6-2.8
				s0.5-2.1,1.6-2.8s2.7-1.1,4.6-1.1s3.3,0.4,4.6,1.1C421.3,160.4,421.9,161.5,421.9,162.5z M410.9,162.5c0,0.7,0.4,1.2,1.2,1.6
				c0.8,0.4,2,0.5,3.6,0.5s2.7-0.1,3.6-0.5s1.2-0.9,1.2-1.6s-0.4-1.2-1.2-1.6c-0.8-0.4-2-0.5-3.6-0.5s-2.7,0.1-3.6,0.5
				C411.3,161.3,410.9,161.9,410.9,162.5z"/>
			<path fill="#CCCCCC" d="M415.6,153.4c-0.4-0.4-0.8-0.7-0.9-1.1c-0.3-0.4-0.3-0.8-0.3-1.3c0-0.9,0.4-1.7,1.1-2.5
				c0.7-0.7,1.6-1.1,2.7-1.1s2.1,0.4,2.8,1.1s1.1,1.5,1.1,2.5c0,1.2-0.5,2.1-1.5,2.9c-0.9,0.8-2.3,1.1-3.9,1.1
				c-2.1,0-3.7-0.5-5.1-1.6c-1.3-1.1-1.9-2.5-1.9-4.3c0-0.5,0-1.1,0.1-1.2c0-0.1,0.3-0.3,0.5-0.3c0.4,0,0.5,0.4,0.5,1.1
				c0,0.5,0,0.9,0.1,1.2c0.1,0.9,0.7,1.7,1.5,2.4C413.3,153,414.2,153.1,415.6,153.4z M418,153.1c0.8,0,1.3-0.1,1.9-0.5
				c0.5-0.4,0.7-0.9,0.7-1.6c0-0.5-0.3-1.1-0.7-1.5c-0.5-0.4-1.1-0.5-1.7-0.5c-0.8,0-1.3,0.1-1.9,0.5s-0.7,0.9-0.7,1.6
				c0,0.5,0.3,1.1,0.7,1.5C416.8,153,417.3,153.1,418,153.1z"/>
			<path fill="#CCCCCC" d="M421.6,143c0,0.4,0,0.5-0.1,0.7c-0.1,0.1-0.4,0.3-0.5,0.3c-0.4,0-1.1-0.5-2.3-1.7l-0.3-0.3
				c-0.1-0.1-0.4-0.4-0.7-0.8c-2-2.1-3.5-3.2-4.4-3.2c-0.7,0-1.2,0.1-1.6,0.5s-0.5,0.9-0.5,1.5c0,0.4,0,0.8,0.3,1.1s0.4,0.7,0.7,0.8
				c0,0,0.1,0.1,0.3,0.1c0.4,0.3,0.5,0.5,0.5,0.8s0,0.4-0.1,0.5s-0.4,0.1-0.8,0.1c-0.3,0-0.4,0-0.5,0s-0.3-0.1-0.4-0.3
				c-0.4-0.4-0.7-0.9-0.9-1.5s-0.4-1.2-0.4-1.7c0-1.1,0.4-1.9,1.1-2.5c0.7-0.7,1.5-1.1,2.4-1.1c1.2,0,2.8,1.1,4.8,3.2
				c0.5,0.5,0.9,0.9,1.2,1.2l1.1,1.1v-4.3c-0.3,0-0.5-0.1-0.5-0.3c-0.1-0.1-0.3-0.3-0.3-0.5s0-0.4,0.1-0.5s0.3-0.1,0.5-0.1
				c0,0,0,0,0.1,0s0,0,0.1,0h0.7c0.1,0,0.4,0,0.5,0.1s0.1,0.3,0.1,0.4L421.6,143L421.6,143z"/>
			<path fill="#CCCCCC" d="M421.9,128.2c0,1.2-0.5,2.1-1.6,2.8s-2.7,1.1-4.6,1.1s-3.3-0.4-4.6-1.1c-1.2-0.7-1.6-1.6-1.6-2.8
				s0.5-2.1,1.6-2.8c1.1-0.7,2.7-1.1,4.6-1.1s3.3,0.4,4.6,1.1C421.3,126.1,421.9,127.2,421.9,128.2z M410.9,128.2
				c0,0.7,0.4,1.2,1.2,1.6c0.8,0.4,2,0.5,3.6,0.5s2.7-0.1,3.6-0.5s1.2-0.9,1.2-1.6s-0.4-1.2-1.2-1.6c-0.8-0.4-2-0.5-3.6-0.5
				s-2.7,0.1-3.6,0.5C411.3,127,410.9,127.6,410.9,128.2z"/>
			<path fill="#CCCCCC" d="M411.6,119.1L411.6,119.1c0,0.1,0,0.1,0,0.2s0,0.4-0.1,0.5s-0.3,0.1-0.4,0.1s-0.3,0-0.4-0.1
				s-0.1-0.3-0.3-0.5l-0.8-2.7v-0.1v-0.1c0-0.1,0-0.3,0.1-0.3s0.3-0.1,0.4-0.1h10v-1.5c0-0.5,0-0.9,0.1-1.1c0.1-0.1,0.3-0.3,0.5-0.3
				s0.4,0,0.5,0.1s0.1,0.3,0.1,0.5v5.5c0,0.3,0,0.4-0.1,0.5s-0.3,0.1-0.5,0.1c-0.3,0-0.4,0-0.5-0.3c-0.1-0.1-0.1-0.5-0.1-1.1v-1.5
				H411L411.6,119.1z"/>
			<path fill="#CCCCCC" d="M421.6,105.7c0,0.3,0,0.5-0.1,0.5c-0.1,0.1-0.3,0.1-0.5,0.1c-0.3,0-0.4,0-0.5-0.1s-0.1-0.3-0.1-0.5v-1.1
				h-1.6v4.3c0,0.1,0,0.3-0.1,0.4c-0.1,0-0.3,0.1-0.4,0.1h-0.7c-0.3,0-0.5-0.1-0.8-0.3h-0.1l-6.7-3.9c-0.1,0-0.3-0.1-0.3-0.3
				c0-0.1,0-0.1,0-0.3v-0.1l0,0l0.1-0.9c0,0,0-0.1,0.1-0.3c0.1-0.1,0.1,0,0.4,0h7.1v-0.5c0-0.1,0-0.3-0.1-0.3s-0.1-0.1-0.1-0.3
				c0-0.1,0-0.3,0.1-0.3s0.1-0.1,0.4-0.1h0.1h0.1h0.4c0.3,0,0.4,0.1,0.5,0.1c0,0,0.1,0.3,0.1,0.4v0.8h1.6v-0.3c0-0.4,0-0.7,0.1-0.8
				c0.1-0.1,0.3-0.3,0.5-0.3s0.4,0,0.5,0.1s0.1,0.3,0.1,0.5v2.9L421.6,105.7L421.6,105.7L421.6,105.7z M417.3,104.7H411l6.3,3.5
				V104.7z"/>
		</g>
	</g>
	<g id="Laag_3">
		<path fill="none" stroke="#FFFFFF" stroke-width="3.1305" stroke-miterlimit="10" d="M434.1,206.2c0,3.9-3.2,7.1-7.1,7.1H170.8
			c-3.9,0-7.1-3.2-7.1-7.1V87.4c0-3.9,3.2-7.1,7.1-7.1h256.1c3.9,0,7.1,3.2,7.1,7.1L434.1,206.2L434.1,206.2L434.1,206.2z"/>
		<line fill="none" stroke="#FFFFFF" stroke-width="2.6833" stroke-miterlimit="10" x1="204.9" y1="80.6" x2="204.9" y2="213.7"/>
		<line fill="none" stroke="#FFFFFF" stroke-width="2.6833" stroke-miterlimit="10" x1="396.3" y1="80.6" x2="396.3" y2="213.7"/>
		<rect x="157.9" y="129.8" fill="none" width="286.6" height="47.5"/>
		<g enable-background="new    ">
			<path fill="#FFFFFF" d="M246.2,151.9l-1.8,3.3v11.2h-5.7v-36.6h5.7v15.9l7.5-15.9h5.7l-8,16.3l8,20.3h-5.9L246.2,151.9z"/>
			<path fill="#FFFFFF" d="M266,145.3h7.9v5.2H266v10.7h9.9v5.2h-15.7v-36.6H276v5.2H266V145.3z"/>
			<path fill="#FFFFFF" d="M291.5,166.4c-0.3-0.9-0.5-1.5-0.5-4.5v-5.7c0-3.4-1.1-4.6-3.8-4.6h-2v14.9h-5.7v-36.6h8.7
				c6,0,8.5,2.8,8.5,8.4v2.9c0,3.8-1.2,6.2-3.8,7.4c2.9,1.2,3.8,4,3.8,7.8v5.6c0,1.8,0.1,3.1,0.6,4.4H291.5z M285.2,135.1v11.2h2.2
				c2.1,0,3.4-0.9,3.4-3.9v-3.6c0-2.6-0.9-3.8-2.9-3.8H285.2z"/>
			<path fill="#FFFFFF" d="M312.7,155.8l3.9-26h8v36.6h-5.4v-26.2l-4,26.2h-5.4l-4.3-25.9v25.9h-5v-36.6h8L312.7,155.8z"/>
			<path fill="#FFFFFF" d="M334.3,160.9v5.5h-5.5v-5.5H334.3z"/>
			<path fill="#FFFFFF" d="M338.5,129.9h5.7v36.6h-5.7V129.9z"/>
			<path fill="#FFFFFF" d="M356.1,129.5c5.6,0,8.5,3.3,8.5,9.2v1.1h-5.4v-1.5c0-2.6-1-3.6-2.9-3.6s-2.9,1-2.9,3.6
				c0,7.5,11.2,8.9,11.2,19.4c0,5.8-2.9,9.2-8.6,9.2s-8.6-3.3-8.6-9.2v-2.2h5.4v2.6c0,2.6,1.1,3.6,3,3.6s3-0.9,3-3.6
				c0-7.5-11.2-8.9-11.2-19.4C347.7,132.8,350.5,129.5,356.1,129.5z"/>
		</g>
		<line fill="none" stroke="#FFFFFF" stroke-miterlimit="10" x1="217.1" y1="114" x2="383.6" y2="114"/>
		<line fill="none" stroke="#FFFFFF" stroke-miterlimit="10" x1="217.1" y1="183.7" x2="383.6" y2="183.7"/>
	</g>
</g>
</svg>
