<?xml version="1.0" encoding="utf-8"?>
<!-- Generator: Adobe Illustrator 17.0.0, SVG Export Plug-In . SVG Version: 6.00 Build 0)  -->
<!DOCTYPE svg PUBLIC "-//W3C//DTD SVG 1.1//EN" "http://www.w3.org/Graphics/SVG/1.1/DTD/svg11.dtd">
<svg version="1.1" id="Layer_1" xmlns="http://www.w3.org/2000/svg" xmlns:xlink="http://www.w3.org/1999/xlink" x="0px" y="0px"
	 width="324px" height="224px" viewBox="137.14 309.445 324 224" enable-background="new 137.14 309.445 324 224"
	 xml:space="preserve">
<g id="Layer_3">
	<g id="Laag_2">
		
			<linearGradient id="SVGID_1_" gradientUnits="userSpaceOnUse" x1="295.47" y1="482.9889" x2="295.47" y2="350.9724" gradientTransform="matrix(1 0 0 -1 0.14 840.945)">
			<stop  offset="0.5" style="stop-color:#00A9A9"/>
			<stop  offset="0.5" style="stop-color:#00A39F"/>
		</linearGradient>
		<path fill="url(#SVGID_1_)" d="M428.72,470.006v-7.01c-3.683-0.444-3.683-6.167,0-6.611v-6.434c-3.683-0.444-3.683-6.167,0-6.611
			v-6.656c-10.249-1.154-18.414-10.028-18.414-20.499s8.164-19.39,18.414-20.499v-5.458c-3.683-0.444-3.683-6.167,0-6.611v-6.656
			c-4.082-0.133-4.082-6.478,0-6.655v-5.458c-0.044,0-0.089,0-0.133,0c-4.304,0-4.304-6.655,0-6.655c0.044,0,0.089,0,0.133,0v-1.864
			H162.5v4.792c0.044,0,0.089,0,0.133,0c4.304,0,4.304,6.656,0,6.656c-0.044,0-0.089,0-0.133,0v4.881
			c4.082,0.133,4.082,6.478,0,6.656v5.812c3.683,0.444,3.683,6.167,0,6.611v7.188c9.54,1.775,16.949,10.294,16.949,20.277
			s-7.41,18.502-16.949,20.277v6.877c3.683,0.444,3.683,6.167,0,6.611v5.812c4.082,0.133,4.082,6.478,0,6.656v6.079
			c3.683,0.444,3.683,6.167,0,6.611v11.314h266.22v-12.823C425.037,476.174,425.037,470.45,428.72,470.006z"/>
		<g>
			
				<linearGradient id="SVGID_2_" gradientUnits="userSpaceOnUse" x1="204.822" y1="451.0935" x2="213.829" y2="451.0935" gradientTransform="matrix(1 0 0 -1 0.14 840.945)">
				<stop  offset="0" style="stop-color:#00A9A9"/>
				<stop  offset="1" style="stop-color:#00A39F"/>
			</linearGradient>
			<path fill="url(#SVGID_2_)" d="M212.416,387.966c0-0.044,0-0.089,0-0.133s0-0.044,0-0.089c0-0.133,0.044-0.266,0.133-0.355
				c0.089-0.089,0.177-0.133,0.311-0.133c0.089,0,0.222,0.044,0.311,0.133s0.133,0.177,0.177,0.355l0.577,2.041
				c0,0.044,0.044,0.089,0.044,0.133s0,0.089,0,0.133c0,0.089-0.044,0.177-0.133,0.222c-0.089,0.044-0.177,0.089-0.311,0.089h-7.587
				v1.109c0,0.399-0.044,0.666-0.089,0.799c-0.044,0.133-0.177,0.177-0.399,0.177c-0.177,0-0.311-0.044-0.355-0.133
				s-0.133-0.222-0.133-0.399v-4.126c0-0.177,0.044-0.311,0.133-0.399c0.089-0.089,0.222-0.133,0.355-0.133
				c0.177,0,0.311,0.044,0.399,0.177c0.089,0.133,0.089,0.355,0.089,0.799v1.154h6.789L212.416,387.966z"/>
			
				<linearGradient id="SVGID_3_" gradientUnits="userSpaceOnUse" x1="204.644" y1="442.8185" x2="213.873" y2="442.8185" gradientTransform="matrix(1 0 0 -1 0.14 840.945)">
				<stop  offset="0" style="stop-color:#00A9A9"/>
				<stop  offset="1" style="stop-color:#00A39F"/>
			</linearGradient>
			<path fill="url(#SVGID_3_)" d="M209.177,399.724c-0.311-0.266-0.577-0.532-0.71-0.843c-0.177-0.311-0.222-0.621-0.222-0.976
				c0-0.71,0.266-1.331,0.843-1.864c0.577-0.532,1.242-0.754,2.041-0.754c0.843,0,1.553,0.266,2.085,0.754s0.799,1.109,0.799,1.908
				c0,0.887-0.355,1.642-1.109,2.174s-1.686,0.843-2.884,0.843c-1.597,0-2.84-0.399-3.816-1.198c-0.932-0.799-1.42-1.908-1.42-3.239
				c0-0.444,0.044-0.71,0.089-0.843c0.044-0.133,0.177-0.222,0.355-0.222c0.311,0,0.444,0.266,0.444,0.843
				c0,0.355,0.044,0.666,0.089,0.887c0.133,0.71,0.488,1.331,1.109,1.775C207.447,399.325,208.201,399.591,209.177,399.724z
				 M211.041,399.547c0.577,0,1.021-0.133,1.375-0.444c0.355-0.311,0.532-0.71,0.532-1.154s-0.177-0.799-0.488-1.109
				c-0.355-0.266-0.799-0.399-1.331-0.399c-0.577,0-1.021,0.133-1.375,0.444c-0.355,0.311-0.532,0.666-0.532,1.109
				c0,0.444,0.177,0.799,0.488,1.109C210.065,399.414,210.508,399.547,211.041,399.547z"/>
			
				<linearGradient id="SVGID_4_" gradientUnits="userSpaceOnUse" x1="204.6" y1="434.299" x2="213.828" y2="434.299" gradientTransform="matrix(1 0 0 -1 0.14 840.945)">
				<stop  offset="0" style="stop-color:#00A9A9"/>
				<stop  offset="1" style="stop-color:#00A39F"/>
			</linearGradient>
			<path fill="url(#SVGID_4_)" d="M204.74,406.646c0-0.887,0.399-1.553,1.242-2.085s1.952-0.754,3.372-0.754
				s2.529,0.266,3.372,0.754c0.843,0.488,1.242,1.198,1.242,2.085s-0.399,1.553-1.242,2.085c-0.843,0.532-1.952,0.754-3.372,0.754
				s-2.529-0.266-3.372-0.754C205.184,408.199,204.74,407.533,204.74,406.646z M212.949,406.646c0-0.532-0.311-0.932-0.932-1.242
				c-0.621-0.311-1.509-0.444-2.662-0.444c-1.154,0-2.041,0.133-2.662,0.444s-0.932,0.71-0.932,1.242s0.311,0.932,0.932,1.242
				c0.621,0.311,1.509,0.444,2.662,0.444c1.154,0,2.041-0.133,2.662-0.444C212.638,407.622,212.949,407.178,212.949,406.646z"/>
			
				<linearGradient id="SVGID_5_" gradientUnits="userSpaceOnUse" x1="204.644" y1="425.7805" x2="213.873" y2="425.7805" gradientTransform="matrix(1 0 0 -1 0.14 840.945)">
				<stop  offset="0" style="stop-color:#00A9A9"/>
				<stop  offset="1" style="stop-color:#00A39F"/>
			</linearGradient>
			<path fill="url(#SVGID_5_)" d="M209.177,416.762c-0.311-0.266-0.577-0.532-0.71-0.843c-0.177-0.311-0.222-0.621-0.222-0.976
				c0-0.71,0.266-1.331,0.843-1.864c0.577-0.532,1.242-0.754,2.041-0.754c0.843,0,1.553,0.266,2.085,0.754s0.799,1.109,0.799,1.908
				c0,0.887-0.355,1.642-1.109,2.174s-1.686,0.843-2.884,0.843c-1.597,0-2.84-0.399-3.816-1.198c-0.932-0.799-1.42-1.908-1.42-3.239
				c0-0.444,0.044-0.71,0.089-0.843c0.044-0.133,0.177-0.222,0.355-0.222c0.311,0,0.444,0.266,0.444,0.843
				c0,0.355,0.044,0.666,0.089,0.887c0.133,0.71,0.488,1.331,1.109,1.775C207.447,416.363,208.201,416.629,209.177,416.762z
				 M211.041,416.629c0.577,0,1.021-0.133,1.375-0.444c0.355-0.311,0.532-0.71,0.532-1.154s-0.177-0.799-0.488-1.109
				c-0.355-0.266-0.799-0.399-1.331-0.399c-0.577,0-1.021,0.133-1.375,0.444s-0.532,0.666-0.532,1.109s0.177,0.799,0.488,1.109
				C210.065,416.452,210.508,416.629,211.041,416.629z"/>
			
				<linearGradient id="SVGID_6_" gradientUnits="userSpaceOnUse" x1="204.734" y1="417.5055" x2="213.696" y2="417.5055" gradientTransform="matrix(1 0 0 -1 0.14 840.945)">
				<stop  offset="0" style="stop-color:#00A9A9"/>
				<stop  offset="1" style="stop-color:#00A39F"/>
			</linearGradient>
			<path fill="url(#SVGID_6_)" d="M204.962,421.288c0-0.266,0.044-0.444,0.133-0.532c0.089-0.089,0.266-0.177,0.444-0.177
				c0.311,0,0.843,0.444,1.686,1.331l0.177,0.222c0.133,0.133,0.311,0.311,0.532,0.577c1.509,1.597,2.618,2.396,3.283,2.396
				c0.488,0,0.887-0.133,1.198-0.444c0.311-0.266,0.444-0.666,0.444-1.109c0-0.311-0.044-0.577-0.177-0.843
				s-0.266-0.488-0.488-0.621c-0.044-0.044-0.089-0.089-0.177-0.133c-0.311-0.177-0.444-0.355-0.444-0.577
				c0-0.177,0.044-0.266,0.133-0.355c0.089-0.089,0.311-0.089,0.577-0.089c0.177,0,0.266,0,0.355,0.044s0.177,0.089,0.266,0.177
				c0.266,0.311,0.532,0.666,0.666,1.109c0.177,0.444,0.266,0.887,0.266,1.331c0,0.754-0.266,1.42-0.754,1.908
				c-0.488,0.532-1.109,0.754-1.819,0.754c-0.887,0-2.13-0.799-3.594-2.352c-0.355-0.399-0.666-0.71-0.887-0.932l-0.799-0.843v3.15
				c0.177,0,0.355,0.089,0.444,0.177c0.089,0.089,0.177,0.222,0.177,0.355s-0.044,0.266-0.133,0.355
				c-0.089,0.089-0.222,0.133-0.399,0.133c0,0-0.044,0-0.089,0c-0.044,0-0.044,0-0.089,0l-0.532-0.044
				c-0.133,0-0.266-0.044-0.355-0.133s-0.133-0.177-0.133-0.266v-4.57h0.088V421.288z"/>
			
				<linearGradient id="SVGID_7_" gradientUnits="userSpaceOnUse" x1="204.6" y1="408.742" x2="213.828" y2="408.742" gradientTransform="matrix(1 0 0 -1 0.14 840.945)">
				<stop  offset="0" style="stop-color:#00A9A9"/>
				<stop  offset="1" style="stop-color:#00A39F"/>
			</linearGradient>
			<path fill="url(#SVGID_7_)" d="M204.74,432.203c0-0.887,0.399-1.553,1.242-2.085s1.952-0.754,3.372-0.754
				s2.529,0.266,3.372,0.754c0.843,0.488,1.242,1.198,1.242,2.085s-0.399,1.553-1.242,2.085c-0.843,0.532-1.952,0.754-3.372,0.754
				s-2.529-0.266-3.372-0.754C205.184,433.8,204.74,433.09,204.74,432.203z M212.949,432.203c0-0.532-0.311-0.932-0.932-1.242
				c-0.621-0.311-1.509-0.444-2.662-0.444c-1.154,0-2.041,0.133-2.662,0.444s-0.932,0.71-0.932,1.242s0.311,0.932,0.932,1.242
				c0.621,0.311,1.509,0.444,2.662,0.444c1.154,0,2.041-0.133,2.662-0.444C212.638,433.179,212.949,432.78,212.949,432.203z"/>
			
				<linearGradient id="SVGID_8_" gradientUnits="userSpaceOnUse" x1="204.822" y1="400.0015" x2="213.829" y2="400.0015" gradientTransform="matrix(1 0 0 -1 0.14 840.945)">
				<stop  offset="0" style="stop-color:#00A9A9"/>
				<stop  offset="1" style="stop-color:#00A39F"/>
			</linearGradient>
			<path fill="url(#SVGID_8_)" d="M212.416,439.08c0-0.044,0-0.089,0-0.133s0-0.044,0-0.089c0-0.133,0.044-0.266,0.133-0.355
				c0.089-0.089,0.177-0.133,0.311-0.133c0.089,0,0.222,0.044,0.311,0.133s0.133,0.177,0.177,0.355l0.577,2.041
				c0,0.044,0.044,0.089,0.044,0.133s0,0.089,0,0.133c0,0.089-0.044,0.177-0.133,0.222c-0.089,0.044-0.177,0.089-0.311,0.089h-7.587
				v1.109c0,0.399-0.044,0.666-0.089,0.799c-0.044,0.133-0.177,0.177-0.399,0.177c-0.177,0-0.311-0.044-0.355-0.133
				c-0.044-0.089-0.133-0.222-0.133-0.399v-4.171c0-0.177,0.044-0.311,0.133-0.399c0.089-0.089,0.222-0.133,0.355-0.133
				c0.177,0,0.311,0.044,0.399,0.177c0.089,0.133,0.089,0.355,0.089,0.799v1.154h6.789L212.416,439.08z"/>
			
				<linearGradient id="SVGID_9_" gradientUnits="userSpaceOnUse" x1="204.822" y1="391.4605" x2="213.829" y2="391.4605" gradientTransform="matrix(1 0 0 -1 0.14 840.945)">
				<stop  offset="0" style="stop-color:#00A9A9"/>
				<stop  offset="1" style="stop-color:#00A39F"/>
			</linearGradient>
			<path fill="url(#SVGID_9_)" d="M212.416,447.599c0-0.044,0-0.089,0-0.133s0-0.044,0-0.089c0-0.133,0.044-0.266,0.133-0.355
				c0.089-0.089,0.177-0.133,0.311-0.133c0.089,0,0.222,0.044,0.311,0.133s0.133,0.177,0.177,0.355l0.577,2.041
				c0,0.044,0.044,0.089,0.044,0.133s0,0.089,0,0.133c0,0.089-0.044,0.177-0.133,0.222c-0.089,0.044-0.177,0.089-0.311,0.089h-7.587
				v1.109c0,0.399-0.044,0.666-0.089,0.799c-0.044,0.133-0.177,0.177-0.399,0.177c-0.177,0-0.311-0.044-0.355-0.133
				s-0.133-0.222-0.133-0.399v-4.126c0-0.177,0.044-0.311,0.133-0.399c0.089-0.089,0.222-0.133,0.355-0.133
				c0.177,0,0.311,0.044,0.399,0.177c0.089,0.133,0.089,0.355,0.089,0.799v1.154h6.789L212.416,447.599z"/>
		</g>
		<g>
			
				<linearGradient id="SVGID_10_" gradientUnits="userSpaceOnUse" x1="377.244" y1="391.9035" x2="386.163" y2="391.9035" gradientTransform="matrix(1 0 0 -1 0.14 840.945)">
				<stop  offset="0" style="stop-color:#00A9A9"/>
				<stop  offset="1" style="stop-color:#00A39F"/>
			</linearGradient>
			<path fill="url(#SVGID_10_)" d="M378.937,450.927c0,0.044,0,0.089,0,0.133s0,0.044,0,0.089c0,0.133-0.044,0.266-0.133,0.355
				s-0.177,0.133-0.311,0.133c-0.089,0-0.222-0.044-0.311-0.133s-0.133-0.177-0.177-0.355l-0.577-2.041
				c0-0.044-0.044-0.089-0.044-0.133s0-0.089,0-0.133c0-0.089,0.044-0.177,0.133-0.222s0.177-0.089,0.311-0.089h7.499v-1.109
				c0-0.399,0.044-0.666,0.089-0.799c0.089-0.089,0.177-0.177,0.399-0.177c0.177,0,0.311,0.044,0.355,0.133s0.133,0.222,0.133,0.399
				v4.126c0,0.177-0.044,0.311-0.133,0.399s-0.222,0.133-0.355,0.133c-0.177,0-0.311-0.044-0.399-0.177
				c-0.089-0.089-0.089-0.355-0.089-0.799v-1.154h-6.789L378.937,450.927z"/>
			
				<linearGradient id="SVGID_11_" gradientUnits="userSpaceOnUse" x1="377.244" y1="400.1785" x2="386.473" y2="400.1785" gradientTransform="matrix(1 0 0 -1 0.14 840.945)">
				<stop  offset="0" style="stop-color:#00A9A9"/>
				<stop  offset="1" style="stop-color:#00A39F"/>
			</linearGradient>
			<path fill="url(#SVGID_11_)" d="M382.22,439.169c0.311,0.266,0.577,0.532,0.71,0.843c0.177,0.311,0.222,0.621,0.222,0.976
				c0,0.71-0.266,1.331-0.843,1.864c-0.532,0.532-1.242,0.754-2.041,0.754c-0.843,0-1.553-0.266-2.085-0.754
				s-0.799-1.109-0.799-1.908c0-0.887,0.355-1.642,1.109-2.174c0.71-0.577,1.686-0.843,2.884-0.843c1.597,0,2.84,0.399,3.816,1.198
				c0.932,0.799,1.42,1.908,1.42,3.239c0,0.444-0.044,0.71-0.089,0.843c-0.044,0.133-0.177,0.222-0.355,0.222
				c-0.311,0-0.444-0.266-0.444-0.843c0-0.355-0.044-0.666-0.089-0.887c-0.133-0.71-0.488-1.331-1.109-1.775
				C383.951,439.568,383.152,439.302,382.22,439.169z M380.357,439.302c-0.577,0-1.021,0.133-1.375,0.444
				c-0.355,0.311-0.532,0.71-0.532,1.154s0.177,0.799,0.488,1.109c0.355,0.266,0.799,0.399,1.331,0.399
				c0.577,0,1.02-0.133,1.375-0.444s0.532-0.666,0.532-1.109s-0.177-0.799-0.488-1.109
				C381.288,439.48,380.845,439.302,380.357,439.302z"/>
			
				<linearGradient id="SVGID_12_" gradientUnits="userSpaceOnUse" x1="377.245" y1="408.698" x2="386.473" y2="408.698" gradientTransform="matrix(1 0 0 -1 0.14 840.945)">
				<stop  offset="0" style="stop-color:#00A9A9"/>
				<stop  offset="1" style="stop-color:#00A39F"/>
			</linearGradient>
			<path fill="url(#SVGID_12_)" d="M386.613,432.247c0,0.887-0.399,1.553-1.242,2.085c-0.843,0.532-1.952,0.754-3.372,0.754
				s-2.529-0.266-3.372-0.754s-1.242-1.198-1.242-2.085s0.399-1.553,1.242-2.085s1.952-0.754,3.372-0.754s2.529,0.266,3.372,0.754
				C386.214,430.65,386.613,431.36,386.613,432.247z M378.404,432.247c0,0.532,0.311,0.932,0.932,1.242
				c0.621,0.311,1.509,0.444,2.662,0.444s2.041-0.133,2.662-0.444s0.932-0.71,0.932-1.242s-0.311-0.932-0.932-1.242
				c-0.621-0.311-1.509-0.444-2.662-0.444s-2.041,0.133-2.662,0.444C378.715,431.271,378.404,431.715,378.404,432.247z"/>
			
				<linearGradient id="SVGID_13_" gradientUnits="userSpaceOnUse" x1="377.421" y1="417.2175" x2="386.561" y2="417.2175" gradientTransform="matrix(1 0 0 -1 0.14 840.945)">
				<stop  offset="0" style="stop-color:#00A9A9"/>
				<stop  offset="1" style="stop-color:#00A39F"/>
			</linearGradient>
			<path fill="url(#SVGID_13_)" d="M381.865,425.37c-0.311-0.266-0.577-0.532-0.71-0.843c-0.177-0.311-0.222-0.621-0.222-1.021
				c0-0.71,0.266-1.331,0.843-1.864c0.532-0.532,1.242-0.754,2.041-0.754c0.843,0,1.553,0.266,2.085,0.754s0.799,1.109,0.799,1.908
				c0,0.932-0.355,1.642-1.065,2.174s-1.686,0.843-2.884,0.843c-1.553,0-2.84-0.399-3.771-1.198c-0.976-0.799-1.42-1.864-1.42-3.195
				c0-0.444,0.044-0.754,0.089-0.887c0.044-0.133,0.177-0.222,0.355-0.222c0.311,0,0.444,0.266,0.444,0.799
				c0,0.355,0.044,0.666,0.089,0.887c0.133,0.71,0.488,1.331,1.109,1.775S380.889,425.237,381.865,425.37z M383.684,425.193
				c0.577,0,1.021-0.133,1.375-0.444c0.355-0.311,0.532-0.666,0.532-1.154c0-0.444-0.177-0.799-0.488-1.109
				c-0.355-0.266-0.799-0.444-1.331-0.444c-0.577,0-1.021,0.133-1.375,0.444c-0.355,0.311-0.532,0.666-0.532,1.154
				c0,0.444,0.177,0.799,0.488,1.109C382.753,425.059,383.152,425.193,383.684,425.193z"/>
			
				<linearGradient id="SVGID_14_" gradientUnits="userSpaceOnUse" x1="377.377" y1="425.514" x2="386.339" y2="425.514" gradientTransform="matrix(1 0 0 -1 0.14 840.945)">
				<stop  offset="0" style="stop-color:#00A9A9"/>
				<stop  offset="1" style="stop-color:#00A39F"/>
			</linearGradient>
			<path fill="url(#SVGID_14_)" d="M386.391,417.605c0,0.266-0.044,0.444-0.133,0.532c-0.089,0.133-0.266,0.177-0.444,0.177
				c-0.311,0-0.843-0.444-1.686-1.331l-0.177-0.222c-0.133-0.133-0.311-0.311-0.532-0.577c-1.509-1.597-2.618-2.396-3.283-2.396
				c-0.488,0-0.887,0.133-1.198,0.444c-0.311,0.266-0.444,0.666-0.444,1.109c0,0.311,0.044,0.577,0.177,0.843
				s0.266,0.488,0.488,0.621c0.044,0.044,0.089,0.089,0.177,0.133c0.311,0.177,0.444,0.355,0.444,0.577
				c0,0.177-0.044,0.266-0.133,0.355c-0.089,0.089-0.311,0.089-0.577,0.089c-0.177,0-0.266,0-0.355-0.044
				c-0.089-0.044-0.177-0.089-0.266-0.177c-0.266-0.311-0.532-0.666-0.666-1.109c-0.177-0.444-0.266-0.887-0.266-1.331
				c0-0.754,0.266-1.42,0.754-1.908c0.488-0.532,1.109-0.754,1.819-0.754c0.887,0,2.13,0.799,3.594,2.352
				c0.355,0.399,0.666,0.71,0.887,0.932l0.799,0.843v-3.195c-0.177,0-0.355-0.089-0.444-0.177c-0.089-0.089-0.177-0.222-0.177-0.355
				s0.044-0.266,0.133-0.355c0.089-0.089,0.222-0.133,0.399-0.133c0,0,0.044,0,0.089,0s0.044,0,0.089,0l0.532,0.044
				c0.133,0,0.266,0.044,0.355,0.133c0.089,0.089,0.133,0.177,0.133,0.266v4.614H386.391z"/>
			
				<linearGradient id="SVGID_15_" gradientUnits="userSpaceOnUse" x1="377.245" y1="434.299" x2="386.473" y2="434.299" gradientTransform="matrix(1 0 0 -1 0.14 840.945)">
				<stop  offset="0" style="stop-color:#00A9A9"/>
				<stop  offset="1" style="stop-color:#00A39F"/>
			</linearGradient>
			<path fill="url(#SVGID_15_)" d="M386.613,406.646c0,0.887-0.399,1.553-1.242,2.085c-0.843,0.532-1.952,0.754-3.372,0.754
				s-2.529-0.266-3.372-0.754s-1.242-1.198-1.242-2.085s0.399-1.553,1.242-2.085s1.952-0.754,3.372-0.754s2.529,0.266,3.372,0.754
				C386.214,405.049,386.613,405.803,386.613,406.646z M378.404,406.646c0,0.532,0.311,0.932,0.932,1.242
				c0.621,0.311,1.509,0.444,2.662,0.444s2.041-0.133,2.662-0.444s0.932-0.71,0.932-1.242s-0.311-0.932-0.932-1.242
				c-0.621-0.311-1.509-0.444-2.662-0.444s-2.041,0.133-2.662,0.444C378.715,405.714,378.404,406.113,378.404,406.646z"/>
			
				<linearGradient id="SVGID_16_" gradientUnits="userSpaceOnUse" x1="377.244" y1="443.0175" x2="386.163" y2="443.0175" gradientTransform="matrix(1 0 0 -1 0.14 840.945)">
				<stop  offset="0" style="stop-color:#00A9A9"/>
				<stop  offset="1" style="stop-color:#00A39F"/>
			</linearGradient>
			<path fill="url(#SVGID_16_)" d="M378.937,399.813c0,0.044,0,0.089,0,0.133s0,0.044,0,0.089c0,0.133-0.044,0.266-0.133,0.355
				s-0.177,0.133-0.311,0.133c-0.089,0-0.222-0.044-0.311-0.133s-0.133-0.177-0.177-0.355l-0.577-2.041
				c0-0.044-0.044-0.089-0.044-0.133s0-0.089,0-0.133c0-0.089,0.044-0.177,0.133-0.222s0.177-0.089,0.311-0.089h7.499v-1.109
				c0-0.399,0.044-0.666,0.089-0.799c0.089-0.089,0.177-0.177,0.399-0.177c0.177,0,0.311,0.044,0.355,0.133s0.133,0.222,0.133,0.399
				v4.126c0,0.177-0.044,0.311-0.133,0.399s-0.222,0.133-0.355,0.133c-0.177,0-0.311-0.044-0.399-0.177
				c-0.089-0.089-0.089-0.355-0.089-0.799v-1.065h-6.789L378.937,399.813z"/>
			
				<linearGradient id="SVGID_17_" gradientUnits="userSpaceOnUse" x1="377.287" y1="451.1585" x2="386.251" y2="451.1585" gradientTransform="matrix(1 0 0 -1 0.14 840.945)">
				<stop  offset="0" style="stop-color:#00A9A9"/>
				<stop  offset="1" style="stop-color:#00A39F"/>
			</linearGradient>
			<path fill="url(#SVGID_17_)" d="M386.391,389.785c0,0.222-0.044,0.355-0.089,0.444c-0.089,0.089-0.222,0.133-0.399,0.133
				s-0.266-0.044-0.355-0.133c-0.089-0.089-0.133-0.222-0.133-0.399v-0.799h-1.154v3.239c0,0.133-0.044,0.222-0.089,0.266
				c-0.089,0.044-0.177,0.089-0.311,0.089h-0.488c-0.177,0-0.399-0.089-0.577-0.222c-0.044-0.044-0.089-0.044-0.089-0.044
				l-5.014-2.884c-0.133-0.044-0.177-0.133-0.222-0.177s-0.044-0.089-0.044-0.177c0-0.044,0-0.089,0-0.133v-0.044l0.089-0.71
				c0-0.044,0.044-0.133,0.089-0.177s0.133-0.044,0.266-0.044h5.28v-0.355c0-0.089-0.044-0.177-0.133-0.222
				s-0.133-0.133-0.133-0.177c0-0.089,0.044-0.177,0.089-0.222s0.133-0.089,0.266-0.089c0.044,0,0.089,0,0.133,0
				s0.089,0,0.089,0.044l0.266,0.044c0.177,0.044,0.266,0.089,0.355,0.133c0.044,0.044,0.089,0.177,0.089,0.311v0.577h1.154v-0.222
				c0-0.311,0.044-0.488,0.089-0.621c0.089-0.089,0.177-0.177,0.355-0.177c0.177,0,0.311,0.044,0.355,0.133
				c0.089,0.089,0.133,0.222,0.133,0.399v2.219h0.133V389.785z M383.196,389.031h-4.703l4.703,2.618V389.031z"/>
		</g>
	</g>
	<g id="Laag_3">
		<path fill="none" stroke="#FFFFFF" stroke-width="3.1305" stroke-miterlimit="10" d="M395.664,464.815
			c0,2.928-2.396,5.324-5.324,5.324H199.105c-2.928,0-5.324-2.396-5.324-5.324v-88.74c0-2.928,2.396-5.324,5.324-5.324H390.34
			c2.928,0,5.324,2.396,5.324,5.324V464.815z"/>
		
			<line fill="none" stroke="#FFFFFF" stroke-width="2.6833" stroke-miterlimit="10" x1="224.618" y1="370.972" x2="224.618" y2="470.361"/>
		
			<line fill="none" stroke="#FFFFFF" stroke-width="2.6833" stroke-miterlimit="10" x1="367.489" y1="370.972" x2="367.489" y2="470.361"/>
		<rect x="189.5" y="407.83" fill="none" width="214" height="35.5"/>
		<text transform="matrix(1 0 0 1 248.2388 435.1302)" fill="#FFFFFF" font-family="'BebasNeue'" font-size="39">KERM.IS</text>
		<line fill="none" stroke="#FFFFFF" stroke-miterlimit="10" x1="233.715" y1="396" x2="358" y2="396"/>
		<line fill="none" stroke="#FFFFFF" stroke-miterlimit="10" x1="233.715" y1="448" x2="358" y2="448"/>
	</g>
</g>
</svg>
