<?xml version="1.0" encoding="utf-8"?>
<!-- Generator: Adobe Illustrator 17.0.0, SVG Export Plug-In . SVG Version: 6.00 Build 0)  -->
<!DOCTYPE svg PUBLIC "-//W3C//DTD SVG 1.1//EN" "http://www.w3.org/Graphics/SVG/1.1/DTD/svg11.dtd">
<svg version="1.1" id="Layer_1" xmlns="http://www.w3.org/2000/svg" xmlns:xlink="http://www.w3.org/1999/xlink" x="0px" y="0px"
	 width="209.873px" height="400.397px" viewBox="0 0 209.873 400.397" enable-background="new 0 0 209.873 400.397"
	 xml:space="preserve">
<g>
	<g>
		<g>
			<radialGradient id="SVGID_1_" cx="104.9361" cy="200.1992" r="159.8301" gradientUnits="userSpaceOnUse">
				<stop  offset="0" style="stop-color:#FFFFFF"/>
				<stop  offset="1" style="stop-color:#FFFFFF"/>
			</radialGradient>
			<path fill="url(#SVGID_1_)" d="M147.552,2.924c-10.617-1.636-26.464-2.759-42.157-2.914V0c-0.153,0.001-0.305,0.004-0.459,0.005
				c-0.153-0.001-0.305-0.004-0.458-0.005v0.01C88.783,0.165,72.938,1.288,62.32,2.924C0.725,12.414,0,85.521,0,138.289v43.303
				v2.309v32.597v10.27v35.342c0,52.769,0.725,125.876,62.32,135.365c10.617,1.635,26.463,2.759,42.157,2.914v0.01
				c0.153-0.001,0.305-0.004,0.458-0.005c0.154,0.001,0.306,0.004,0.459,0.005v-0.01c15.693-0.155,31.54-1.279,42.157-2.914
				c61.596-9.489,62.32-78.595,62.32-135.365v-35.342v-10.27V183.9v-2.309v-43.303C209.872,81.518,209.147,12.414,147.552,2.924z"/>
			
				<radialGradient id="SVGID_2_" cx="102.7265" cy="200.0076" r="158.5241" gradientTransform="matrix(0.9758 0 0 1 4.7007 0)" gradientUnits="userSpaceOnUse">
				<stop  offset="0" style="stop-color:#FFFFFF"/>
				<stop  offset="0.4068" style="stop-color:#FAFAFA"/>
				<stop  offset="0.9085" style="stop-color:#EBEBEB"/>
				<stop  offset="1" style="stop-color:#E7E7E7"/>
			</radialGradient>
			<path fill="url(#SVGID_2_)" d="M146.565,4.851c-10.372-1.618-25.851-2.73-41.182-2.882v-0.01
				c-0.149,0.001-0.298,0.005-0.448,0.005c-0.15,0-0.298-0.004-0.447-0.005v0.01c-15.331,0.153-30.81,1.264-41.182,2.882
				C3.138,14.239,2.43,86.561,2.43,138.762V181.6v2.284v32.247v10.16v34.962c0,52.202,0.708,124.524,60.877,133.911
				c10.372,1.618,25.851,2.729,41.182,2.883v0.01c0.149-0.001,0.297-0.007,0.447-0.005c0.15,0.002,0.299,0.004,0.448,0.005v-0.01
				c15.331-0.153,30.81-1.265,41.182-2.883c60.169-9.387,60.877-77.75,60.877-133.911v-34.962v-10.16v-32.247V181.6v-42.837
				C207.442,82.601,206.734,14.239,146.565,4.851z"/>
			
				<radialGradient id="SVGID_3_" cx="100.4043" cy="199.8159" r="157.224" gradientTransform="matrix(0.9515 0 0 1 9.4014 0)" gradientUnits="userSpaceOnUse">
				<stop  offset="0" style="stop-color:#FFFFFF"/>
				<stop  offset="0.2681" style="stop-color:#FAFAFA"/>
				<stop  offset="0.5993" style="stop-color:#EBEBEB"/>
				<stop  offset="0.9625" style="stop-color:#D2D2D2"/>
				<stop  offset="1" style="stop-color:#CFCFCF"/>
			</radialGradient>
			<path fill="url(#SVGID_3_)" d="M145.579,6.778c-10.127-1.6-25.238-2.7-40.206-2.851v-0.01c-0.146,0.001-0.291,0.004-0.438,0.005
				c-0.146-0.001-0.291-0.004-0.437-0.005v0.01c-14.968,0.151-30.08,1.251-40.206,2.851C5.551,16.064,4.859,87.601,4.859,139.236
				v42.372v2.26v31.896v10.05v34.583c0,51.635,0.691,123.172,59.434,132.457c10.126,1.601,25.238,2.7,40.206,2.852v0.01
				c0.146-0.001,0.29-0.004,0.437-0.005c0.146,0.001,0.292,0.004,0.438,0.005v-0.01c14.968-0.151,30.079-1.251,40.206-2.852
				c58.742-9.285,59.434-76.906,59.434-132.457v-34.583v-10.05v-31.896v-2.26v-42.372C205.013,83.684,204.321,16.064,145.579,6.778z
				"/>
		</g>
		<linearGradient id="SVGID_4_" gradientUnits="userSpaceOnUse" x1="104.9365" y1="4.977051e-04" x2="104.9365" y2="400.3975">
			<stop  offset="0" style="stop-color:#C7C7C7"/>
			<stop  offset="1" style="stop-color:#5E5E5E"/>
		</linearGradient>
		<path fill="url(#SVGID_4_)" d="M147.553,2.924c-10.617-1.636-26.465-2.759-42.158-2.914V0c-0.152,0.001-0.305,0.004-0.459,0.005
			c-0.152-0.001-0.305-0.004-0.457-0.005v0.01C88.784,0.165,72.938,1.289,62.32,2.924C0.726,12.414,0,85.521,0,138.29v43.302v2.309
			v32.597v10.27v35.342c0,52.77,0.726,125.877,62.32,135.365c10.617,1.635,26.464,2.76,42.158,2.914v0.01
			c0.152,0,0.305-0.004,0.457-0.004c0.154,0,0.307,0.004,0.459,0.004v-0.01c15.693-0.154,31.541-1.279,42.158-2.914
			c61.596-9.488,62.32-78.594,62.32-135.365v-35.342v-10.27V183.9v-2.309V138.29C209.873,81.519,209.148,12.414,147.553,2.924z"/>
	</g>
	<linearGradient id="SVGID_5_" gradientUnits="userSpaceOnUse" x1="117.677" y1="-2.295515e-06" x2="117.677" y2="334.4707">
		<stop  offset="0" style="stop-color:#C7C7C7"/>
		<stop  offset="1" style="stop-color:#5E5E5E"/>
	</linearGradient>
	<path fill="url(#SVGID_5_)" d="M147.552,2.924c-10.617-1.636-26.465-2.759-42.158-2.914V0c-0.152,0.001-0.305,0.004-0.459,0.005
		c-0.152-0.001-0.305-0.004-0.457-0.005v0.01C88.783,0.165,72.937,1.288,62.32,2.924C46.252,5.399,34.333,12.21,25.482,21.853
		c87.291,30.127,183.576,173.141,179.621,312.614c0,0.002,0,0.002,0,0.004c4.639-22.777,4.77-48.645,4.77-72.363v-35.342v-10.27
		V183.9v-2.309v-43.303C209.872,81.518,209.147,12.414,147.552,2.924z"/>
</g>
</svg>
